# xmcd
#
# Track frame offsets: 
#        150
#        17981
#        55531
#
# Disc length: 1303 seconds
#
# Revision: 0
# Processed by: cddbd v1.5.2PL0 Copyright (c) Steve Scherf et al.
# Submitted via: ExactAudioCopy v0.95b3
#
DISCID=1b051503
DTITLE=Prey - Allelujah [CD Mute 372] - Recoil
DYEAR=2008
DGENRE=Electronic
TTITLE0=Prey (Kill The Pirates)
TTITLE1=Prey (Album version)
TTITLE2=Allelujah (Reduction)
EXTD=
EXTT0=
EXTT1=
EXTT2=
PLAYORDER=
